# xmcd
#
# Track frame offsets:
# 183
# 16835
# 33840
# 46305
# 60990
# 74853
# 89000
# 103678
# 118245
# 131595
# 144643
# 158165
# 170570
# 182865
# 195548
# 210693
# 224660
# 238118
# 251468
#
# Disc length: 3542 seconds
#
# Revision: 1
# Processed by: cddbd v1.4PL0 Copyright (c) Steve Scherf et al.
# Submitted via: CedeCatalogueitor 2.5 http://usuarios.lycos.es/kakasboy
#
DISCID=210dd413
DTITLE=John Lee Hooker - The Boogie Man
DYEAR=1994
DGENRE=
TTITLE0=Mambo Chillun
TTITLE1=Time Is Marching
TTITLE2=Unfriendly Woman
TTITLE3=I'm So Worried Baby
TTITLE4=Baby Lee
TTITLE5=Road Is So Rough
TTITLE6=Trouble Blues
TTITLE7=Everybody Rockin'
TTITLE8=I'm So Excited
TTITLE9=Crawlin' Black Spider
TTITLE10=Little Fine Woman
TTITLE11=Rosie Mae
TTITLE12=You've Taken My Woman
TTITLE13=Mama, You Got a Daughter
TTITLE14=House Rent Boogie
TTITLE15=I'm a Stranger
TTITLE16=I'm Mad Again
TTITLE17=Hard Hearted Woman
TTITLE18=I Wanna Walk
EXTD=
EXTT0=
EXTT1=
EXTT2=
EXTT3=
EXTT4=
EXTT5=
EXTT6=
EXTT7=
EXTT8=
EXTT9=
EXTT10=
EXTT11=
EXTT12=
EXTT13=
EXTT14=
EXTT15=
EXTT16=
EXTT17=
EXTT18=
PLAYORDER=
